<svg width="150" height="150" xmlns="http://www.w3.org/2000/svg">

 <g>
  <title>background</title>
  <rect fill="none" id="canvas_background" height="402" width="582" y="-1" x="-1"/>
 </g>
 <g>
  <title>Layer 1</title>
  <path fill="#7f8389" d="m15,30l120,0c8.284,0 15,-6.716 15,-15s-6.716,-15 -15,-15l-120,0c-8.284,0 -15,6.716 -15,15s6.716,15 15,15z" id="XMLID_230_"/>
  <path fill="#7f8389" d="m135,60l-120,0c-8.284,0 -15,6.716 -15,15s6.716,15 15,15l120,0c8.284,0 15,-6.716 15,-15s-6.716,-15 -15,-15z" id="XMLID_231_"/>
  <path fill="#7f8389" d="m135,120l-120,0c-8.284,0 -15,6.716 -15,15s6.716,15 15,15l120,0c8.284,0 15,-6.716 15,-15s-6.716,-15 -15,-15z" id="XMLID_232_"/>
 </g>
</svg>